<svg width="406" height="58" viewBox="0 0 406 58" fill="none" xmlns="http://www.w3.org/2000/svg">
<path d="M36.5396 48.4307V57H8.1582V48.4307H36.5396ZM11.7471 3.67969V57H0.760742V3.67969H11.7471ZM32.8408 25.396V33.7456H8.1582V25.396H32.8408ZM36.5029 3.67969V12.2856H8.1582V3.67969H36.5029ZM61.6982 17.376V24.8467H38.627V17.376H61.6982ZM44.3398 7.59814H54.8867V45.0615C54.8867 46.209 55.0332 47.0879 55.3262 47.6982C55.6436 48.3086 56.1074 48.7358 56.7178 48.98C57.3281 49.1997 58.0972 49.3096 59.0249 49.3096C59.6841 49.3096 60.27 49.2852 60.7827 49.2363C61.3198 49.1631 61.7715 49.0898 62.1377 49.0166L62.1743 56.7803C61.271 57.0732 60.2944 57.3052 59.2446 57.4761C58.1948 57.647 57.0352 57.7324 55.7656 57.7324C53.4463 57.7324 51.4199 57.354 49.6865 56.5972C47.9775 55.8159 46.6592 54.5708 45.7314 52.8618C44.8037 51.1528 44.3398 48.9067 44.3398 46.1235V7.59814ZM77.9946 0.75V57H67.4478V0.75H77.9946ZM76.4932 35.7964H73.6001C73.6245 33.0376 73.9907 30.4985 74.6987 28.1792C75.4067 25.8354 76.4199 23.8091 77.7383 22.1001C79.0566 20.3667 80.6313 19.0239 82.4624 18.0718C84.3179 17.1196 86.3687 16.6436 88.6147 16.6436C90.5679 16.6436 92.3379 16.9243 93.9248 17.4858C95.5361 18.0229 96.9155 18.9019 98.063 20.1226C99.2349 21.3188 100.138 22.8936 100.773 24.8467C101.408 26.7998 101.725 29.168 101.725 31.9512V57H91.105V31.8779C91.105 30.1201 90.8486 28.7407 90.3359 27.7397C89.8477 26.7144 89.1274 25.9941 88.1753 25.5791C87.2476 25.1396 86.1001 24.9199 84.7329 24.9199C83.2192 24.9199 81.9253 25.2007 80.8511 25.7622C79.8013 26.3237 78.959 27.105 78.3242 28.106C77.6895 29.0825 77.2256 30.23 76.9326 31.5483C76.6396 32.8667 76.4932 34.2827 76.4932 35.7964ZM131.132 48.0645V30.4131C131.132 29.1436 130.924 28.0571 130.509 27.1538C130.094 26.2261 129.447 25.5059 128.568 24.9932C127.714 24.4805 126.603 24.2241 125.236 24.2241C124.064 24.2241 123.051 24.4316 122.196 24.8467C121.342 25.2373 120.683 25.811 120.219 26.5679C119.755 27.3003 119.523 28.167 119.523 29.168H108.976C108.976 27.4834 109.367 25.8843 110.148 24.3706C110.929 22.8569 112.064 21.5264 113.554 20.3789C115.043 19.207 116.813 18.2915 118.864 17.6323C120.939 16.9731 123.258 16.6436 125.822 16.6436C128.898 16.6436 131.632 17.1562 134.025 18.1816C136.417 19.207 138.297 20.7451 139.665 22.7959C141.056 24.8467 141.752 27.4102 141.752 30.4863V47.4419C141.752 49.6147 141.886 51.397 142.155 52.7886C142.423 54.1558 142.814 55.3521 143.327 56.3774V57H132.67C132.157 55.9258 131.767 54.583 131.498 52.9717C131.254 51.3359 131.132 49.7002 131.132 48.0645ZM132.523 32.8667L132.597 38.8359H126.701C125.309 38.8359 124.101 38.9946 123.075 39.312C122.05 39.6294 121.208 40.0811 120.548 40.667C119.889 41.2285 119.401 41.8877 119.083 42.6445C118.791 43.4014 118.644 44.2314 118.644 45.1348C118.644 46.0381 118.852 46.856 119.267 47.5884C119.682 48.2964 120.28 48.8579 121.061 49.2729C121.842 49.6636 122.758 49.8589 123.808 49.8589C125.395 49.8589 126.774 49.5415 127.946 48.9067C129.118 48.272 130.021 47.4907 130.656 46.563C131.315 45.6353 131.657 44.7563 131.681 43.9263L134.464 48.394C134.074 49.395 133.537 50.4326 132.853 51.5068C132.194 52.5811 131.352 53.5942 130.326 54.5464C129.301 55.4741 128.068 56.2432 126.627 56.8535C125.187 57.4395 123.478 57.7324 121.5 57.7324C118.986 57.7324 116.703 57.2319 114.652 56.231C112.626 55.2056 111.015 53.8018 109.818 52.0195C108.646 50.2129 108.061 48.1621 108.061 45.8672C108.061 43.792 108.451 41.9487 109.232 40.3374C110.014 38.7261 111.161 37.3711 112.675 36.2725C114.213 35.1494 116.129 34.3071 118.424 33.7456C120.719 33.1597 123.38 32.8667 126.408 32.8667H132.523ZM160.209 25.8354V57H149.662V17.376H159.55L160.209 25.8354ZM158.671 35.7964H155.814C155.814 32.8667 156.193 30.23 156.95 27.8862C157.707 25.5181 158.769 23.5039 160.136 21.8438C161.503 20.1592 163.126 18.8774 165.006 17.9985C166.911 17.0952 169.035 16.6436 171.378 16.6436C173.234 16.6436 174.931 16.9121 176.469 17.4492C178.007 17.9863 179.325 18.8408 180.424 20.0127C181.547 21.1846 182.401 22.7349 182.987 24.6636C183.598 26.5923 183.903 28.9482 183.903 31.7314V57H173.283V31.6948C173.283 29.937 173.039 28.5698 172.55 27.5933C172.062 26.6167 171.342 25.9331 170.39 25.5425C169.462 25.1274 168.314 24.9199 166.947 24.9199C165.531 24.9199 164.298 25.2007 163.249 25.7622C162.223 26.3237 161.369 27.105 160.685 28.106C160.026 29.0825 159.525 30.23 159.184 31.5483C158.842 32.8667 158.671 34.2827 158.671 35.7964ZM245.536 48.4307V57H218.693V48.4307H245.536ZM222.245 3.67969V57H211.259V3.67969H222.245ZM273.734 47.5151V17.376H284.281V57H274.357L273.734 47.5151ZM274.906 39.3853L278.019 39.312C278.019 41.9487 277.714 44.4023 277.104 46.6729C276.493 48.9189 275.578 50.8721 274.357 52.5322C273.136 54.168 271.598 55.4497 269.743 56.3774C267.887 57.2808 265.702 57.7324 263.188 57.7324C261.259 57.7324 259.477 57.4639 257.841 56.9268C256.229 56.3652 254.838 55.4985 253.666 54.3267C252.519 53.1304 251.615 51.6045 250.956 49.749C250.321 47.8691 250.004 45.6108 250.004 42.9741V17.376H260.551V43.0474C260.551 44.2192 260.685 45.208 260.954 46.0137C261.247 46.8193 261.649 47.4785 262.162 47.9912C262.675 48.5039 263.273 48.8701 263.957 49.0898C264.665 49.3096 265.446 49.4194 266.3 49.4194C268.473 49.4194 270.182 48.98 271.427 48.1011C272.697 47.2222 273.588 46.0259 274.101 44.5122C274.638 42.9741 274.906 41.2651 274.906 39.3853ZM308.708 49.4927C310.001 49.4927 311.149 49.2485 312.15 48.7603C313.151 48.2476 313.932 47.5396 314.494 46.6362C315.08 45.7085 315.385 44.6221 315.409 43.377H325.333C325.309 46.1602 324.564 48.6382 323.1 50.811C321.635 52.9595 319.669 54.6562 317.204 55.9014C314.738 57.1221 311.979 57.7324 308.927 57.7324C305.851 57.7324 303.166 57.2197 300.871 56.1943C298.6 55.1689 296.708 53.7529 295.194 51.9463C293.681 50.1152 292.545 47.9912 291.789 45.5742C291.032 43.1328 290.653 40.5205 290.653 37.7373V36.6753C290.653 33.8677 291.032 31.2554 291.789 28.8384C292.545 26.397 293.681 24.2729 295.194 22.4663C296.708 20.6353 298.6 19.207 300.871 18.1816C303.141 17.1562 305.802 16.6436 308.854 16.6436C312.101 16.6436 314.945 17.2661 317.387 18.5112C319.853 19.7563 321.781 21.5386 323.173 23.8579C324.589 26.1528 325.309 28.875 325.333 32.0244H315.409C315.385 30.7061 315.104 29.5098 314.567 28.4355C314.054 27.3613 313.297 26.5068 312.296 25.8721C311.32 25.2129 310.111 24.8833 308.671 24.8833C307.133 24.8833 305.875 25.2129 304.899 25.8721C303.922 26.5068 303.166 27.3857 302.628 28.5088C302.091 29.6074 301.713 30.8647 301.493 32.2808C301.298 33.6724 301.2 35.1372 301.2 36.6753V37.7373C301.2 39.2754 301.298 40.7524 301.493 42.1685C301.688 43.5845 302.055 44.8418 302.592 45.9404C303.153 47.0391 303.922 47.9058 304.899 48.5405C305.875 49.1753 307.145 49.4927 308.708 49.4927ZM341.74 0.75V57H331.193V0.75H341.74ZM340.238 35.7964H337.345C337.37 33.0376 337.736 30.4985 338.444 28.1792C339.152 25.8354 340.165 23.8091 341.483 22.1001C342.802 20.3667 344.376 19.0239 346.208 18.0718C348.063 17.1196 350.114 16.6436 352.36 16.6436C354.313 16.6436 356.083 16.9243 357.67 17.4858C359.281 18.0229 360.661 18.9019 361.808 20.1226C362.98 21.3188 363.883 22.8936 364.518 24.8467C365.153 26.7998 365.47 29.168 365.47 31.9512V57H354.85V31.8779C354.85 30.1201 354.594 28.7407 354.081 27.7397C353.593 26.7144 352.873 25.9941 351.92 25.5791C350.993 25.1396 349.845 24.9199 348.478 24.9199C346.964 24.9199 345.67 25.2007 344.596 25.7622C343.546 26.3237 342.704 27.105 342.069 28.106C341.435 29.0825 340.971 30.23 340.678 31.5483C340.385 32.8667 340.238 34.2827 340.238 35.7964ZM394.914 46.0503C394.914 45.2935 394.694 44.6099 394.254 43.9995C393.815 43.3892 392.997 42.8276 391.801 42.3149C390.629 41.7778 388.932 41.2896 386.71 40.8501C384.708 40.4106 382.841 39.8613 381.107 39.2021C379.398 38.5186 377.909 37.7007 376.64 36.7485C375.395 35.7964 374.418 34.6733 373.71 33.3794C373.002 32.061 372.648 30.5596 372.648 28.875C372.648 27.2148 373.002 25.6523 373.71 24.1875C374.442 22.7227 375.48 21.4287 376.823 20.3057C378.19 19.1582 379.85 18.2671 381.803 17.6323C383.781 16.9731 386.002 16.6436 388.468 16.6436C391.911 16.6436 394.865 17.1929 397.331 18.2915C399.821 19.3901 401.725 20.9038 403.043 22.8325C404.386 24.7368 405.058 26.9097 405.058 29.3511H394.511C394.511 28.3257 394.291 27.4102 393.852 26.6045C393.437 25.7744 392.777 25.1274 391.874 24.6636C390.995 24.1753 389.848 23.9312 388.432 23.9312C387.26 23.9312 386.247 24.1387 385.392 24.5537C384.538 24.9443 383.878 25.4814 383.415 26.165C382.975 26.8242 382.755 27.5566 382.755 28.3623C382.755 28.9727 382.877 29.522 383.122 30.0103C383.39 30.4741 383.817 30.9014 384.403 31.292C384.989 31.6826 385.746 32.0488 386.674 32.3906C387.626 32.708 388.798 33.001 390.189 33.2695C393.046 33.8555 395.597 34.6245 397.843 35.5767C400.089 36.5044 401.872 37.7739 403.19 39.3853C404.508 40.9722 405.167 43.0596 405.167 45.6475C405.167 47.4053 404.777 49.0166 403.996 50.4814C403.214 51.9463 402.091 53.228 400.626 54.3267C399.162 55.4009 397.404 56.2432 395.353 56.8535C393.327 57.4395 391.044 57.7324 388.505 57.7324C384.818 57.7324 381.693 57.0732 379.13 55.7549C376.591 54.4365 374.662 52.7642 373.344 50.7378C372.05 48.687 371.403 46.5874 371.403 44.439H381.4C381.449 45.8794 381.815 47.0391 382.499 47.918C383.207 48.7969 384.098 49.4316 385.172 49.8223C386.271 50.2129 387.455 50.4082 388.725 50.4082C390.092 50.4082 391.227 50.2251 392.13 49.8589C393.034 49.4683 393.717 48.9556 394.181 48.3208C394.669 47.6616 394.914 46.9048 394.914 46.0503Z" fill="white"/>
</svg>
